<svg width="30" height="31" viewBox="0 0 30 31" fill="none" xmlns="http://www.w3.org/2000/svg">
<circle cx="14.9486" cy="15.5492" r="14.85" fill="#D1F2F0"/>
<path d="M12.1871 8.23723L18.6031 14.6342C18.6792 14.7103 18.7333 14.7928 18.7653 14.8817C18.7973 14.9705 18.813 15.0657 18.8125 15.1672C18.8125 15.2688 18.7967 15.364 18.7653 15.4528C18.7338 15.5417 18.6797 15.6242 18.6031 15.7003L12.1871 22.1163C12.0094 22.294 11.7873 22.3828 11.5208 22.3828C11.2542 22.3828 11.0258 22.2876 10.8354 22.0972C10.645 21.9069 10.5498 21.6847 10.5498 21.4309C10.5498 21.177 10.645 20.9549 10.8354 20.7645L16.4327 15.1672L10.8354 9.56993C10.6577 9.39223 10.5688 9.17317 10.5688 8.91272C10.5688 8.65227 10.664 8.42711 10.8544 8.23723C11.0448 8.04685 11.2669 7.95166 11.5208 7.95166C11.7746 7.95166 11.9967 8.04685 12.1871 8.23723Z" fill="#19C1B6"/>
</svg>
