<svg width="703" height="671" viewBox="0 0 703 671" fill="none" xmlns="http://www.w3.org/2000/svg">
<path fill-rule="evenodd" clip-rule="evenodd" d="M160.996 527.126C148.727 521.515 136.581 507.44 126.505 517.852C115.109 529.626 116.828 550.537 124.799 564.051C132.037 576.322 147.239 580.167 160.996 576.328C174.642 572.52 186.398 561.438 186.862 546.684C187.254 534.196 171.573 531.964 160.996 527.126Z" fill="#C8EFEA"/>
<path fill-rule="evenodd" clip-rule="evenodd" d="M152.061 516.706C138.658 510.575 125.389 495.199 114.38 506.573C101.93 519.436 103.809 542.282 112.517 557.046C120.424 570.452 137.032 574.653 152.061 570.459C166.97 566.298 179.814 554.192 180.32 538.073C180.749 524.43 163.618 521.991 152.061 516.706Z" stroke="#30E1CB" stroke-width="1.8"/>
<path fill-rule="evenodd" clip-rule="evenodd" d="M640.572 597.535C630.983 607.218 613.412 613.842 619.781 627.019C626.984 641.921 647.413 647.563 663.002 644.704C677.157 642.107 686.09 629.028 687.234 614.646C688.368 600.38 681.947 585.377 668.116 579.806C656.409 575.091 648.839 589.186 640.572 597.535Z" stroke="#FAC589" stroke-width="1.8"/>
<path fill-rule="evenodd" clip-rule="evenodd" d="M633.973 611.284C625.197 620.148 609.113 626.21 614.943 638.272C621.536 651.912 640.236 657.076 654.504 654.459C667.46 652.083 675.638 640.11 676.684 626.947C677.722 613.888 671.846 600.155 659.185 595.056C648.47 590.741 641.54 603.642 633.973 611.284Z" fill="#FEEDDA"/>
<path fill-rule="evenodd" clip-rule="evenodd" d="M629.32 54.4143C613.454 47.1579 597.748 28.9578 584.718 42.421C569.982 57.6467 572.205 84.6878 582.513 102.164C591.872 118.032 611.531 123.004 629.32 118.04C646.966 113.115 662.169 98.7852 662.768 79.7057C663.275 63.5572 642.998 60.6706 629.32 54.4143Z" fill="#F1F4E7"/>
<path fill-rule="evenodd" clip-rule="evenodd" d="M616.069 46.9745C598.736 39.0468 581.577 19.1631 567.341 33.8717C551.242 50.5058 553.671 80.0484 564.932 99.1408C575.158 116.477 596.634 121.909 616.069 116.485C635.348 111.105 651.957 95.4498 652.612 74.6053C653.166 56.9631 631.013 53.8094 616.069 46.9745Z" stroke="#FEA439" stroke-width="1.8"/>
<g clip-path="url(#clip0_2208_2)">
<path d="M3.57213 114.753C10.1793 106.645 18.2779 99.5649 27.4083 94.3277C31.1021 92.2106 35.4202 90.402 39.7643 90.4792C44.1084 90.5563 47.8455 92.8363 49.467 96.7449C51.0884 100.653 50.5248 104.896 48.886 108.565C47.2473 112.233 43.7442 116.253 39.5128 117.051C35.2815 117.848 31.1368 115.251 28.6396 112.156C25.5874 108.359 24.9892 103.293 26.1077 98.6734C28.5529 88.5506 37.9521 82.5506 47.0912 78.8134C57.1407 74.7077 68.118 72.9592 78.9653 73.662C83.5001 73.9534 88.8674 74.7849 90.9397 79.3877C93.0121 83.9906 91.3646 88.6706 88.5812 92.3649C87.0638 94.3792 85.2083 96.1706 83.2573 97.782C81.6099 99.1449 79.5462 100.662 77.3005 100.705C75.4189 100.739 73.4072 99.5992 72.4274 98.0306C71.1181 95.9392 72.0979 93.6249 73.5633 91.9106C76.442 88.5506 80.4393 85.8506 84.2892 83.6992C88.139 81.5477 92.2577 79.9363 96.5238 78.8563C105.143 76.6706 114.316 76.722 122.892 79.0792C125.068 79.6792 127.184 80.4334 129.256 81.3163C130.045 81.6506 131.112 81.4192 131.814 80.982C132.274 80.6906 132.933 79.9449 132.135 79.5934C113.094 71.2192 89.1969 75.0849 73.5286 88.5334C71.5257 90.2563 69.2886 92.1934 68.4042 94.7477C67.6411 96.9592 68.4215 99.2734 70.2077 100.748C74.6472 104.416 80.7861 102.402 84.9308 99.3506C89.0755 96.2992 93.6624 91.662 95.0584 86.3734C96.3503 81.4877 94.7549 76.182 90.0986 73.722C87.6881 72.4449 84.9048 72.0077 82.2168 71.7592C79.1387 71.4677 76.0345 71.3992 72.939 71.502C66.618 71.7249 60.3316 72.6763 54.2446 74.382C48.1577 76.0877 42.7991 78.2392 37.6053 81.2306C32.7322 84.042 28.1193 87.7449 25.2059 92.5963C22.4573 97.1734 21.1133 102.796 22.5006 108.025C23.7666 112.799 27.5471 116.828 32.2727 118.413C42.591 121.876 52.8486 112.679 53.8458 102.736C54.3053 98.1506 52.8313 93.5134 48.8947 90.8049C44.7154 87.9334 39.2614 88.1563 34.5444 89.3906C29.1078 90.8134 24.2435 93.6934 19.6652 96.8477C14.7489 100.233 10.1533 104.073 5.9913 108.333C4.00567 110.365 2.12409 112.482 0.337897 114.685C-0.191025 115.328 0.788782 115.671 1.27435 115.688C2.08941 115.722 3.04321 115.388 3.56346 114.753H3.57213Z" fill="#FEA439"/>
</g>
<g clip-path="url(#clip1_2208_2)">
<path d="M585.446 2.04016C585.489 3.92597 585.489 5.81178 585.446 7.69758C585.446 7.94707 585.506 8.08648 585.78 8.20389C586.08 8.33597 586.542 8.34331 586.867 8.29928C587.295 8.24791 587.749 8.14519 588.117 7.93239C588.339 7.80765 588.742 7.58752 588.742 7.33069C588.793 5.31281 588.793 3.28758 588.742 1.2697C588.742 1.04957 588.271 0.910148 588.1 0.880797C587.714 0.807419 587.235 0.851446 586.867 0.939499C586.259 1.09359 585.421 1.39444 585.438 2.02549L585.446 2.04016Z" fill="#FFB154"/>
<path d="M595.152 1.46936L595.058 7.01671C595.058 7.2662 595.118 7.40561 595.391 7.52302C595.691 7.6551 596.153 7.66244 596.478 7.61841C596.906 7.56705 597.36 7.46432 597.728 7.25152C597.942 7.12678 598.353 6.90665 598.353 6.64982L598.447 1.10247C598.447 0.852989 598.387 0.713571 598.113 0.596167C597.814 0.464087 597.351 0.45675 597.026 0.500776C596.598 0.552141 596.145 0.654869 595.777 0.867664C595.563 0.992406 595.152 1.21254 595.152 1.46936Z" fill="#FFB154"/>
<path d="M571.855 18.6029C576.374 23.0422 582.922 25.515 589.692 26.0727C596.462 26.6304 603.968 24.9133 610.011 21.7728C613.478 19.9677 616.55 17.6856 619.229 15.0807C619.811 14.5084 618.733 14.1855 618.245 14.1708C617.363 14.1342 616.439 14.4497 615.857 15.0147C611.826 18.9477 606.545 22.1177 600.639 23.5705C594.733 25.0234 588.776 24.6345 583.332 22.5579C580.191 21.3619 577.409 19.6301 575.141 17.4141C574.337 16.629 570.939 17.715 571.846 18.6029H571.855Z" fill="#FFB154"/>
</g>
<path d="M675.65 545.75L683.054 557.9H668.245L675.65 545.75Z" fill="#EE892F" fill-opacity="0.52"/>
<path d="M140.017 311.251L126.769 333.761L113.945 309.683L140.017 311.251Z" fill="#62C2B6"/>
<defs>
<clipPath id="clip0_2208_2">
<rect width="132.3" height="47.7" fill="white" transform="translate(0.200195 71.4492)"/>
</clipPath>
<clipPath id="clip1_2208_2">
<rect width="47.7" height="25.6969" fill="white" transform="translate(571.7 0.484375)"/>
</clipPath>
</defs>
</svg>
