<svg width="129" height="129" viewBox="0 0 129 129" fill="none" xmlns="http://www.w3.org/2000/svg">
<path d="M128.3 64.6012C128.3 96.4963 104.932 122.932 74.3844 127.725V83.0723H89.2736L92.1066 64.6012H74.3844V52.6149C74.3844 47.5603 76.8605 42.6355 84.7981 42.6355H92.8555V26.9102C92.8555 26.9102 85.5419 25.6621 78.5504 25.6621C63.9557 25.6621 54.4156 34.5083 54.4156 50.5232V64.6012H38.191V83.0723H54.4156V127.725C23.8684 122.932 0.5 96.4963 0.5 64.6012C0.5 29.3114 29.1102 0.701172 64.4 0.701172C99.6898 0.701172 128.3 29.3114 128.3 64.6012Z" fill="#1877F2"/>
<path d="M89.274 83.0723L92.107 64.6012H74.3848V52.6147C74.3848 47.5613 76.8604 42.6355 84.7982 42.6355H92.8559V26.9102C92.8559 26.9102 85.5433 25.6621 78.552 25.6621C63.9558 25.6621 54.416 34.5083 54.416 50.5232V64.6012H38.1914V83.0723H54.416V127.725C57.6694 128.235 61.0037 128.501 64.4004 128.501C67.7971 128.501 71.1314 128.235 74.3848 127.725V83.0723H89.274Z" fill="white"/>
</svg>
