<svg width="23" height="22" viewBox="0 0 23 22" fill="none" xmlns="http://www.w3.org/2000/svg">
<path d="M11.699 10.8984C12.194 10.8984 12.6179 10.722 12.9707 10.3692C13.3235 10.0164 13.4996 9.59284 13.499 9.09844C13.499 8.60344 13.3226 8.17954 12.9698 7.82674C12.617 7.47394 12.1934 7.29784 11.699 7.29844C11.204 7.29844 10.7801 7.47484 10.4273 7.82764C10.0745 8.18044 9.89842 8.60404 9.89902 9.09844C9.89902 9.59344 10.0754 10.0173 10.4282 10.3701C10.781 10.7229 11.2046 10.899 11.699 10.8984ZM11.699 17.5134C13.529 15.8334 14.8865 14.307 15.7715 12.9342C16.6565 11.5614 17.099 10.3428 17.099 9.27844C17.099 7.64344 16.5776 6.30484 15.5348 5.26264C14.492 4.22044 13.2134 3.69904 11.699 3.69844C10.184 3.69844 8.90512 4.21984 7.86232 5.26264C6.81952 6.30544 6.29842 7.64404 6.29902 9.27844C6.29902 10.3434 6.74152 11.5623 7.62652 12.9351C8.51152 14.3079 9.86902 15.834 11.699 17.5134ZM11.699 19.8984C9.28402 17.8434 7.48042 15.9348 6.28822 14.1726C5.09602 12.4104 4.49962 10.779 4.49902 9.27844C4.49902 7.02844 5.22292 5.23594 6.67072 3.90094C8.11852 2.56594 9.79462 1.89844 11.699 1.89844C13.604 1.89844 15.2804 2.56594 16.7282 3.90094C18.176 5.23594 18.8996 7.02844 18.899 9.27844C18.899 10.7784 18.3026 12.4098 17.1098 14.1726C15.917 15.9354 14.1134 17.844 11.699 19.8984Z" fill="#19C1B6"/>
</svg>
