<svg width="298" height="67" viewBox="0 0 298 67" fill="none" xmlns="http://www.w3.org/2000/svg">
<path d="M107.135 41.5449H101.02V29.0709H89.5584V41.5449H83.4429V12.6279H89.5584V23.9679H101.02V12.6279H107.135V41.5449ZM123.807 18.9864C126.777 18.9864 129.045 19.6344 130.611 20.9304C132.204 22.1994 133.001 24.1569 133.001 26.8029V41.5449H128.789L127.614 38.5479H127.452C126.831 39.3309 126.183 39.9789 125.508 40.4919C124.86 41.0049 124.104 41.3694 123.24 41.5854C122.403 41.8284 121.364 41.9499 120.122 41.9499C118.826 41.9499 117.651 41.7069 116.598 41.2209C115.572 40.7079 114.762 39.9384 114.168 38.9124C113.574 37.8594 113.277 36.5364 113.277 34.9434C113.277 32.5944 114.101 30.8664 115.748 29.7594C117.395 28.6254 119.865 28.0044 123.159 27.8964L127.007 27.7749V26.8029C127.007 25.6419 126.696 24.7914 126.075 24.2514C125.481 23.7114 124.644 23.4414 123.564 23.4414C122.484 23.4414 121.431 23.6034 120.405 23.9274C119.379 24.2244 118.353 24.6024 117.327 25.0614L115.343 20.9709C116.531 20.3499 117.84 19.8639 119.271 19.5129C120.729 19.1619 122.241 18.9864 123.807 18.9864ZM124.658 31.3794C122.714 31.4334 121.364 31.7844 120.608 32.4324C119.852 33.0804 119.474 33.9309 119.474 34.9839C119.474 35.9019 119.744 36.5634 120.284 36.9684C120.824 37.3464 121.526 37.5354 122.39 37.5354C123.686 37.5354 124.779 37.1574 125.67 36.4014C126.561 35.6184 127.007 34.5249 127.007 33.1209V31.2984L124.658 31.3794ZM159.589 25.2234C159.589 26.4114 159.211 27.4239 158.455 28.2609C157.726 29.0979 156.633 29.6379 155.175 29.8809V30.0429C156.714 30.2319 157.942 30.7584 158.86 31.6224C159.805 32.4864 160.278 33.5934 160.278 34.9434C160.278 35.8884 160.089 36.7659 159.711 37.5759C159.36 38.3859 158.793 39.0879 158.01 39.6819C157.227 40.2759 156.214 40.7349 154.972 41.0589C153.757 41.3829 152.272 41.5449 150.517 41.5449H139.987V19.4319H150.517C152.245 19.4319 153.784 19.6209 155.134 19.9989C156.511 20.3499 157.591 20.9439 158.374 21.7809C159.184 22.6179 159.589 23.7654 159.589 25.2234ZM154.041 34.6194C154.041 33.7554 153.703 33.1344 153.028 32.7564C152.353 32.3514 151.341 32.1489 149.991 32.1489H146.022V37.3734H150.112C151.246 37.3734 152.178 37.1709 152.907 36.7659C153.663 36.3339 154.041 35.6184 154.041 34.6194ZM153.474 25.7094C153.474 25.0074 153.204 24.4944 152.664 24.1704C152.124 23.8464 151.327 23.6844 150.274 23.6844H146.022V28.0584H149.586C150.855 28.0584 151.813 27.8829 152.461 27.5319C153.136 27.1539 153.474 26.5464 153.474 25.7094ZM171.574 27.5319C171.574 28.4769 171.803 29.1924 172.262 29.6784C172.748 30.1644 173.41 30.4074 174.247 30.4074C175.408 30.4074 176.488 30.2859 177.487 30.0429C178.486 29.7729 179.485 29.4219 180.484 28.9899V19.4319H186.518V41.5449H180.484V32.7564C179.539 33.2694 178.459 33.7419 177.244 34.1739C176.029 34.5789 174.652 34.7814 173.113 34.7814C170.818 34.7814 168.982 34.1874 167.605 32.9994C166.228 31.8114 165.539 30.0294 165.539 27.6534V19.4319H171.574V27.5319ZM202.728 18.9864C205.698 18.9864 207.966 19.6344 209.532 20.9304C211.125 22.1994 211.922 24.1569 211.922 26.8029V41.5449H207.71L206.535 38.5479H206.373C205.752 39.3309 205.104 39.9789 204.429 40.4919C203.781 41.0049 203.025 41.3694 202.161 41.5854C201.324 41.8284 200.285 41.9499 199.043 41.9499C197.747 41.9499 196.572 41.7069 195.519 41.2209C194.493 40.7079 193.683 39.9384 193.089 38.9124C192.495 37.8594 192.198 36.5364 192.198 34.9434C192.198 32.5944 193.022 30.8664 194.669 29.7594C196.316 28.6254 198.786 28.0044 202.08 27.8964L205.928 27.7749V26.8029C205.928 25.6419 205.617 24.7914 204.996 24.2514C204.402 23.7114 203.565 23.4414 202.485 23.4414C201.405 23.4414 200.352 23.6034 199.326 23.9274C198.3 24.2244 197.274 24.6024 196.248 25.0614L194.264 20.9709C195.452 20.3499 196.761 19.8639 198.192 19.5129C199.65 19.1619 201.162 18.9864 202.728 18.9864ZM203.579 31.3794C201.635 31.4334 200.285 31.7844 199.529 32.4324C198.773 33.0804 198.395 33.9309 198.395 34.9839C198.395 35.9019 198.665 36.5634 199.205 36.9684C199.745 37.3464 200.447 37.5354 201.311 37.5354C202.607 37.5354 203.7 37.1574 204.591 36.4014C205.482 35.6184 205.928 34.5249 205.928 33.1209V31.2984L203.579 31.3794ZM240.09 9.91442C239.955 11.3184 239.564 12.5604 238.916 13.6404C238.268 14.6934 237.255 15.5169 235.878 16.1109C234.501 16.7049 232.652 17.0019 230.33 17.0019C227.954 17.0019 226.091 16.7184 224.741 16.1514C223.418 15.5574 222.473 14.7339 221.906 13.6809C221.339 12.6279 221.001 11.3724 220.893 9.91442H226.28C226.415 11.3994 226.793 12.3849 227.414 12.8709C228.035 13.3569 229.047 13.5999 230.451 13.5999C231.612 13.5999 232.557 13.3434 233.286 12.8304C234.042 12.2904 234.488 11.3184 234.623 9.91442H240.09ZM224.741 28.1799C224.741 28.6389 224.714 29.2059 224.66 29.8809C224.633 30.5559 224.592 31.2444 224.538 31.9464C224.511 32.6484 224.471 33.2694 224.417 33.8094C224.363 34.3494 224.322 34.7274 224.295 34.9434L234.501 19.4319H241.751V41.5449H235.919V32.7159C235.919 31.9869 235.946 31.1904 236 30.3264C236.054 29.4354 236.108 28.6119 236.162 27.8559C236.243 27.0729 236.297 26.4789 236.324 26.0739L226.158 41.5449H218.909V19.4319H224.741V28.1799ZM263.367 19.4319H270.009L261.261 30.0429L270.778 41.5449H263.934L254.902 30.3264V41.5449H248.868V19.4319H254.902V30.1644L263.367 19.4319ZM283.825 18.9864C286.795 18.9864 289.063 19.6344 290.629 20.9304C292.222 22.1994 293.018 24.1569 293.018 26.8029V41.5449H288.806L287.632 38.5479H287.47C286.849 39.3309 286.201 39.9789 285.526 40.4919C284.878 41.0049 284.122 41.3694 283.258 41.5854C282.421 41.8284 281.381 41.9499 280.139 41.9499C278.843 41.9499 277.669 41.7069 276.616 41.2209C275.59 40.7079 274.78 39.9384 274.186 38.9124C273.592 37.8594 273.295 36.5364 273.295 34.9434C273.295 32.5944 274.118 30.8664 275.765 29.7594C277.412 28.6254 279.883 28.0044 283.177 27.8964L287.024 27.7749V26.8029C287.024 25.6419 286.714 24.7914 286.093 24.2514C285.499 23.7114 284.662 23.4414 283.582 23.4414C282.502 23.4414 281.449 23.6034 280.423 23.9274C279.397 24.2244 278.371 24.6024 277.345 25.0614L275.36 20.9709C276.548 20.3499 277.858 19.8639 279.289 19.5129C280.747 19.1619 282.259 18.9864 283.825 18.9864ZM284.675 31.3794C282.731 31.4334 281.381 31.7844 280.625 32.4324C279.869 33.0804 279.491 33.9309 279.491 34.9839C279.491 35.9019 279.761 36.5634 280.301 36.9684C280.841 37.3464 281.543 37.5354 282.407 37.5354C283.703 37.5354 284.797 37.1574 285.688 36.4014C286.579 35.6184 287.024 34.5249 287.024 33.1209V31.2984L284.675 31.3794Z" fill="#19C1B6"/>
<path d="M90.0011 54.5505C91.1771 54.5505 92.0339 54.7815 92.5715 55.2435C93.1091 55.7055 93.3779 56.3565 93.3779 57.1965C93.3779 57.5661 93.3149 57.9231 93.1889 58.2675C93.0713 58.6035 92.8739 58.9059 92.5967 59.1747C92.3195 59.4435 91.9499 59.6577 91.4879 59.8173C91.0259 59.9685 90.4589 60.0441 89.7869 60.0441H88.7537V63.5469H87.6197V54.5505H90.0011ZM89.9003 55.5207H88.7537V59.0739H89.6609C90.2321 59.0739 90.7067 59.0151 91.0847 58.8975C91.4627 58.7715 91.7441 58.5741 91.9289 58.3053C92.1137 58.0365 92.2061 57.6837 92.2061 57.2469C92.2061 56.6673 92.0213 56.2347 91.6517 55.9491C91.2821 55.6635 90.6983 55.5207 89.9003 55.5207ZM101.221 60.1575C101.221 60.7203 101.145 61.2201 100.994 61.6569C100.851 62.0853 100.641 62.4507 100.364 62.7531C100.095 63.0555 99.7636 63.2865 99.3688 63.4461C98.9824 63.5973 98.5498 63.6729 98.071 63.6729C97.6258 63.6729 97.2142 63.5973 96.8362 63.4461C96.4582 63.2865 96.1306 63.0555 95.8534 62.7531C95.5762 62.4507 95.3578 62.0853 95.1982 61.6569C95.047 61.2201 94.9714 60.7203 94.9714 60.1575C94.9714 59.4099 95.0974 58.7799 95.3494 58.2675C95.6014 57.7467 95.9626 57.3519 96.433 57.0831C96.9034 56.8059 97.462 56.6673 98.1088 56.6673C98.722 56.6673 99.2596 56.8059 99.7216 57.0831C100.192 57.3519 100.557 57.7467 100.818 58.2675C101.087 58.7799 101.221 59.4099 101.221 60.1575ZM96.118 60.1575C96.118 60.6867 96.1852 61.1487 96.3196 61.5435C96.4624 61.9299 96.6808 62.2281 96.9748 62.4381C97.2688 62.6481 97.6426 62.7531 98.0962 62.7531C98.5498 62.7531 98.9236 62.6481 99.2176 62.4381C99.5116 62.2281 99.7258 61.9299 99.8602 61.5435C100.003 61.1487 100.074 60.6867 100.074 60.1575C100.074 59.6199 100.003 59.1621 99.8602 58.7841C99.7174 58.4061 99.499 58.1163 99.205 57.9147C98.9194 57.7047 98.5456 57.5997 98.0836 57.5997C97.3948 57.5997 96.895 57.8265 96.5842 58.2801C96.2734 58.7337 96.118 59.3595 96.118 60.1575ZM102.877 59.4897C102.877 58.5069 102.974 57.6711 103.167 56.9823C103.369 56.2851 103.675 55.7307 104.087 55.3191C104.507 54.8991 105.045 54.6177 105.7 54.4749C106.246 54.3573 106.779 54.2523 107.3 54.1599C107.821 54.0675 108.308 53.9835 108.762 53.9079L108.951 54.8781C108.732 54.9117 108.489 54.9537 108.22 55.0041C107.951 55.0461 107.678 55.0923 107.401 55.1427C107.124 55.1847 106.855 55.2309 106.594 55.2813C106.342 55.3233 106.12 55.3653 105.927 55.4073C105.649 55.4661 105.402 55.5669 105.183 55.7097C104.965 55.8441 104.776 56.0289 104.616 56.2641C104.465 56.4993 104.343 56.7891 104.251 57.1335C104.158 57.4779 104.104 57.8853 104.087 58.3557H104.163C104.28 58.1961 104.44 58.0323 104.641 57.8643C104.851 57.6963 105.099 57.5535 105.385 57.4359C105.679 57.3183 106.011 57.2595 106.38 57.2595C106.968 57.2595 107.455 57.3897 107.842 57.6501C108.237 57.9021 108.531 58.2549 108.724 58.7085C108.925 59.1621 109.026 59.6913 109.026 60.2961C109.026 61.0437 108.896 61.6695 108.636 62.1735C108.375 62.6775 108.014 63.0555 107.552 63.3075C107.09 63.5511 106.552 63.6729 105.939 63.6729C105.477 63.6729 105.057 63.5847 104.679 63.4083C104.301 63.2235 103.978 62.9547 103.709 62.6019C103.44 62.2491 103.234 61.8123 103.092 61.2915C102.949 60.7707 102.877 60.1701 102.877 59.4897ZM106.027 62.7531C106.397 62.7531 106.716 62.6775 106.985 62.5263C107.262 62.3751 107.476 62.1273 107.628 61.7829C107.779 61.4385 107.854 60.9807 107.854 60.4095C107.854 59.7207 107.724 59.1789 107.464 58.7841C107.212 58.3809 106.792 58.1793 106.204 58.1793C105.834 58.1793 105.498 58.2633 105.196 58.4313C104.893 58.5909 104.641 58.7757 104.44 58.9857C104.238 59.1957 104.095 59.3721 104.011 59.5149C104.011 59.9265 104.041 60.3255 104.1 60.7119C104.158 61.0983 104.259 61.4469 104.402 61.7577C104.553 62.0601 104.759 62.3037 105.019 62.4885C105.288 62.6649 105.624 62.7531 106.027 62.7531ZM112.071 60.9135C112.071 60.9891 112.067 61.0983 112.058 61.2411C112.058 61.3755 112.054 61.5225 112.046 61.6821C112.037 61.8333 112.029 61.9803 112.02 62.1231C112.012 62.2575 112.004 62.3667 111.995 62.4507L115.611 56.7933H116.972V63.5469H115.939V59.5653C115.939 59.4309 115.939 59.2545 115.939 59.0361C115.947 58.8177 115.956 58.6035 115.964 58.3935C115.973 58.1751 115.981 58.0113 115.989 57.9021L112.398 63.5469H111.025V56.7933H112.071V60.9135ZM126.619 56.7933V63.5469H125.623V59.2377C125.623 59.0613 125.627 58.8765 125.636 58.6833C125.653 58.4901 125.669 58.3011 125.686 58.1163H125.648L123.443 63.5469H122.511L120.369 58.1163H120.331C120.348 58.3011 120.356 58.4901 120.356 58.6833C120.365 58.8765 120.369 59.0739 120.369 59.2755V63.5469H119.374V56.7933H120.848L122.977 62.2239L125.144 56.7933H126.619ZM134.898 60.1575C134.898 60.7203 134.822 61.2201 134.671 61.6569C134.528 62.0853 134.318 62.4507 134.041 62.7531C133.772 63.0555 133.441 63.2865 133.046 63.4461C132.659 63.5973 132.227 63.6729 131.748 63.6729C131.303 63.6729 130.891 63.5973 130.513 63.4461C130.135 63.2865 129.808 63.0555 129.53 62.7531C129.253 62.4507 129.035 62.0853 128.875 61.6569C128.724 61.2201 128.648 60.7203 128.648 60.1575C128.648 59.4099 128.774 58.7799 129.026 58.2675C129.278 57.7467 129.64 57.3519 130.11 57.0831C130.58 56.8059 131.139 56.6673 131.786 56.6673C132.399 56.6673 132.937 56.8059 133.399 57.0831C133.869 57.3519 134.234 57.7467 134.495 58.2675C134.764 58.7799 134.898 59.4099 134.898 60.1575ZM129.795 60.1575C129.795 60.6867 129.862 61.1487 129.997 61.5435C130.139 61.9299 130.358 62.2281 130.652 62.4381C130.946 62.6481 131.32 62.7531 131.773 62.7531C132.227 62.7531 132.601 62.6481 132.895 62.4381C133.189 62.2281 133.403 61.9299 133.537 61.5435C133.68 61.1487 133.751 60.6867 133.751 60.1575C133.751 59.6199 133.68 59.1621 133.537 58.7841C133.394 58.4061 133.176 58.1163 132.882 57.9147C132.596 57.7047 132.223 57.5997 131.761 57.5997C131.072 57.5997 130.572 57.8265 130.261 58.2801C129.95 58.7337 129.795 59.3595 129.795 60.1575ZM141.541 56.7933V59.6031H145.208V56.7933H146.316V63.5469H145.208V60.5355H141.541V63.5469H140.432V56.7933H141.541ZM151.265 56.6799C152.088 56.6799 152.697 56.8605 153.092 57.2217C153.487 57.5829 153.684 58.1583 153.684 58.9479V63.5469H152.878L152.663 62.5893H152.613C152.42 62.8329 152.218 63.0387 152.008 63.2067C151.807 63.3663 151.571 63.4839 151.303 63.5595C151.042 63.6351 150.723 63.6729 150.345 63.6729C149.942 63.6729 149.576 63.6015 149.249 63.4587C148.93 63.3159 148.678 63.0975 148.493 62.8035C148.308 62.5011 148.216 62.1231 148.216 61.6695C148.216 60.9975 148.48 60.4809 149.009 60.1197C149.539 59.7501 150.353 59.5485 151.454 59.5149L152.6 59.4771V59.0739C152.6 58.5111 152.479 58.1205 152.235 57.9021C151.991 57.6837 151.647 57.5745 151.202 57.5745C150.849 57.5745 150.513 57.6291 150.194 57.7383C149.875 57.8391 149.576 57.9567 149.299 58.0911L148.959 57.2595C149.253 57.0999 149.602 56.9655 150.005 56.8563C150.408 56.7387 150.828 56.6799 151.265 56.6799ZM151.592 60.2835C150.752 60.3171 150.169 60.4515 149.841 60.6867C149.522 60.9219 149.362 61.2537 149.362 61.6821C149.362 62.0601 149.476 62.3373 149.702 62.5137C149.938 62.6901 150.236 62.7783 150.597 62.7783C151.168 62.7783 151.643 62.6229 152.021 62.3121C152.399 61.9929 152.588 61.5057 152.588 60.8505V60.2457L151.592 60.2835ZM161.452 58.4943C161.452 58.9143 161.326 59.2419 161.074 59.4771C160.822 59.7123 160.499 59.8719 160.104 59.9559V60.0063C160.524 60.0651 160.89 60.2163 161.2 60.4599C161.511 60.6951 161.667 61.0647 161.667 61.5687C161.667 61.8543 161.612 62.1189 161.503 62.3625C161.402 62.6061 161.242 62.8161 161.024 62.9925C160.806 63.1689 160.524 63.3075 160.18 63.4083C159.835 63.5007 159.42 63.5469 158.932 63.5469H156.022V56.7933H158.92C159.399 56.7933 159.827 56.8479 160.205 56.9571C160.591 57.0579 160.894 57.2343 161.112 57.4863C161.339 57.7299 161.452 58.0659 161.452 58.4943ZM160.52 61.5687C160.52 61.1823 160.373 60.9051 160.079 60.7371C159.785 60.5691 159.352 60.4851 158.781 60.4851H157.131V62.6523H158.806C159.361 62.6523 159.785 62.5725 160.079 62.4129C160.373 62.2449 160.52 61.9635 160.52 61.5687ZM160.331 58.6329C160.331 58.3137 160.213 58.0827 159.978 57.9399C159.751 57.7887 159.378 57.7131 158.857 57.7131H157.131V59.5653H158.655C159.201 59.5653 159.617 59.4897 159.903 59.3385C160.188 59.1873 160.331 58.9521 160.331 58.6329ZM164.504 59.2503C164.504 59.6451 164.613 59.9391 164.831 60.1323C165.058 60.3171 165.382 60.4095 165.802 60.4095C166.222 60.4095 166.604 60.3465 166.948 60.2205C167.293 60.0861 167.645 59.9097 168.007 59.6913V56.7933H169.115V63.5469H168.007V60.5355C167.629 60.7791 167.255 60.9723 166.885 61.1151C166.524 61.2495 166.087 61.3167 165.575 61.3167C164.886 61.3167 164.348 61.1361 163.962 60.7749C163.584 60.4137 163.395 59.9307 163.395 59.3259V56.7933H164.504V59.2503ZM174.071 56.6799C174.894 56.6799 175.503 56.8605 175.898 57.2217C176.293 57.5829 176.49 58.1583 176.49 58.9479V63.5469H175.684L175.469 62.5893H175.419C175.226 62.8329 175.024 63.0387 174.814 63.2067C174.613 63.3663 174.377 63.4839 174.109 63.5595C173.848 63.6351 173.529 63.6729 173.151 63.6729C172.748 63.6729 172.382 63.6015 172.055 63.4587C171.736 63.3159 171.484 63.0975 171.299 62.8035C171.114 62.5011 171.022 62.1231 171.022 61.6695C171.022 60.9975 171.286 60.4809 171.815 60.1197C172.345 59.7501 173.159 59.5485 174.26 59.5149L175.406 59.4771V59.0739C175.406 58.5111 175.285 58.1205 175.041 57.9021C174.797 57.6837 174.453 57.5745 174.008 57.5745C173.655 57.5745 173.319 57.6291 173 57.7383C172.681 57.8391 172.382 57.9567 172.105 58.0911L171.765 57.2595C172.059 57.0999 172.408 56.9655 172.811 56.8563C173.214 56.7387 173.634 56.6799 174.071 56.6799ZM174.398 60.2835C173.558 60.3171 172.975 60.4515 172.647 60.6867C172.328 60.9219 172.168 61.2537 172.168 61.6821C172.168 62.0601 172.282 62.3373 172.508 62.5137C172.744 62.6901 173.042 62.7783 173.403 62.7783C173.974 62.7783 174.449 62.6229 174.827 62.3121C175.205 61.9929 175.394 61.5057 175.394 60.8505V60.2457L174.398 60.2835ZM179.937 56.7933V59.6031H183.603V56.7933H184.712V63.5469H183.603V60.5355H179.937V63.5469H178.828V56.7933H179.937ZM188.211 56.7933V59.6031H191.878V56.7933H192.987V63.5469H191.878V60.5355H188.211V63.5469H187.102V56.7933H188.211ZM195.793 63.5469H194.508L196.436 60.7119C196.175 60.6447 195.923 60.5397 195.68 60.3969C195.436 60.2457 195.239 60.0399 195.087 59.7795C194.936 59.5107 194.861 59.1789 194.861 58.7841C194.861 58.1373 195.079 57.6459 195.516 57.3099C195.953 56.9655 196.532 56.7933 197.255 56.7933H200.279V63.5469H199.17V60.8631H197.532L195.793 63.5469ZM195.932 58.7967C195.932 59.1831 196.074 59.4729 196.36 59.6661C196.654 59.8509 197.061 59.9433 197.582 59.9433H199.17V57.7131H197.368C196.856 57.7131 196.486 57.8139 196.259 58.0155C196.041 58.2171 195.932 58.4775 195.932 58.7967ZM211.623 58.4943C211.623 58.9143 211.497 59.2419 211.245 59.4771C210.993 59.7123 210.67 59.8719 210.275 59.9559V60.0063C210.695 60.0651 211.06 60.2163 211.371 60.4599C211.682 60.6951 211.837 61.0647 211.837 61.5687C211.837 61.8543 211.783 62.1189 211.673 62.3625C211.573 62.6061 211.413 62.8161 211.195 62.9925C210.976 63.1689 210.695 63.3075 210.35 63.4083C210.006 63.5007 209.59 63.5469 209.103 63.5469H206.192V56.7933H209.09C209.569 56.7933 209.998 56.8479 210.376 56.9571C210.762 57.0579 211.064 57.2343 211.283 57.4863C211.51 57.7299 211.623 58.0659 211.623 58.4943ZM210.691 61.5687C210.691 61.1823 210.544 60.9051 210.25 60.7371C209.956 60.5691 209.523 60.4851 208.952 60.4851H207.301V62.6523H208.977C209.531 62.6523 209.956 62.5725 210.25 62.4129C210.544 62.2449 210.691 61.9635 210.691 61.5687ZM210.502 58.6329C210.502 58.3137 210.384 58.0827 210.149 57.9399C209.922 57.7887 209.548 57.7131 209.027 57.7131H207.301V59.5653H208.826C209.372 59.5653 209.788 59.4897 210.073 59.3385C210.359 59.1873 210.502 58.9521 210.502 58.6329ZM216.312 56.6673C216.892 56.6673 217.388 56.7933 217.799 57.0453C218.219 57.2973 218.538 57.6543 218.757 58.1163C218.984 58.5699 219.097 59.1033 219.097 59.7165V60.3843H214.473C214.49 61.1487 214.683 61.7325 215.052 62.1357C215.43 62.5305 215.955 62.7279 216.627 62.7279C217.056 62.7279 217.434 62.6901 217.761 62.6145C218.097 62.5305 218.442 62.4129 218.795 62.2617V63.2319C218.45 63.3831 218.11 63.4923 217.774 63.5595C217.438 63.6351 217.039 63.6729 216.577 63.6729C215.939 63.6729 215.372 63.5427 214.876 63.2823C214.389 63.0219 214.007 62.6355 213.729 62.1231C213.461 61.6023 213.326 60.9681 213.326 60.2205C213.326 59.4813 213.448 58.8471 213.692 58.3179C213.944 57.7887 214.292 57.3813 214.737 57.0957C215.191 56.8101 215.716 56.6673 216.312 56.6673ZM216.3 57.5745C215.771 57.5745 215.351 57.7467 215.04 58.0911C214.737 58.4271 214.557 58.8975 214.498 59.5023H217.938C217.938 59.1159 217.879 58.7799 217.761 58.4943C217.644 58.2087 217.463 57.9861 217.22 57.8265C216.984 57.6585 216.678 57.5745 216.3 57.5745ZM223.777 63.6729C223.181 63.6729 222.648 63.5511 222.177 63.3075C221.715 63.0639 221.35 62.6859 221.081 62.1735C220.821 61.6611 220.69 61.0059 220.69 60.2079C220.69 59.3763 220.829 58.7001 221.106 58.1793C221.383 57.6585 221.757 57.2763 222.228 57.0327C222.706 56.7891 223.248 56.6673 223.853 56.6673C224.197 56.6673 224.529 56.7051 224.848 56.7807C225.168 56.8479 225.428 56.9319 225.63 57.0327L225.289 57.9525C225.088 57.8769 224.853 57.8055 224.584 57.7383C224.315 57.6711 224.063 57.6375 223.828 57.6375C223.374 57.6375 223 57.7341 222.706 57.9273C222.412 58.1205 222.194 58.4061 222.051 58.7841C221.908 59.1621 221.837 59.6325 221.837 60.1953C221.837 60.7329 221.908 61.1907 222.051 61.5687C222.194 61.9467 222.408 62.2323 222.694 62.4255C222.979 62.6187 223.336 62.7153 223.765 62.7153C224.134 62.7153 224.458 62.6775 224.735 62.6019C225.021 62.5263 225.281 62.4339 225.516 62.3247V63.3075C225.289 63.4251 225.037 63.5133 224.76 63.5721C224.491 63.6393 224.164 63.6729 223.777 63.6729ZM229.982 56.6673C230.562 56.6673 231.058 56.7933 231.469 57.0453C231.889 57.2973 232.208 57.6543 232.427 58.1163C232.654 58.5699 232.767 59.1033 232.767 59.7165V60.3843H228.143C228.16 61.1487 228.353 61.7325 228.722 62.1357C229.1 62.5305 229.625 62.7279 230.297 62.7279C230.726 62.7279 231.104 62.6901 231.431 62.6145C231.767 62.5305 232.112 62.4129 232.465 62.2617V63.2319C232.12 63.3831 231.78 63.4923 231.444 63.5595C231.108 63.6351 230.709 63.6729 230.247 63.6729C229.609 63.6729 229.042 63.5427 228.546 63.2823C228.059 63.0219 227.677 62.6355 227.399 62.1231C227.131 61.6023 226.996 60.9681 226.996 60.2205C226.996 59.4813 227.118 58.8471 227.362 58.3179C227.614 57.7887 227.962 57.3813 228.407 57.0957C228.861 56.8101 229.386 56.6673 229.982 56.6673ZM229.97 57.5745C229.441 57.5745 229.021 57.7467 228.71 58.0911C228.407 58.4271 228.227 58.8975 228.168 59.5023H231.608C231.608 59.1159 231.549 58.7799 231.431 58.4943C231.314 58.2087 231.133 57.9861 230.89 57.8265C230.654 57.6585 230.348 57.5745 229.97 57.5745ZM239.879 63.5469H238.758V57.7131H236.767C236.683 58.7799 236.578 59.6913 236.452 60.4473C236.326 61.1949 236.166 61.8039 235.973 62.2743C235.78 62.7447 235.549 63.0891 235.28 63.3075C235.011 63.5259 234.696 63.6351 234.335 63.6351C234.226 63.6351 234.117 63.6267 234.008 63.6099C233.907 63.6015 233.823 63.5805 233.756 63.5469V62.7153C233.806 62.7321 233.861 62.7447 233.919 62.7531C233.978 62.7615 234.037 62.7657 234.096 62.7657C234.281 62.7657 234.449 62.6901 234.6 62.5389C234.751 62.3877 234.885 62.1567 235.003 61.8459C235.129 61.5351 235.242 61.1445 235.343 60.6741C235.444 60.1953 235.532 59.6325 235.608 58.9857C235.683 58.3389 235.751 57.6081 235.809 56.7933H239.879V63.5469ZM243.321 60.9135C243.321 60.9891 243.316 61.0983 243.308 61.2411C243.308 61.3755 243.304 61.5225 243.295 61.6821C243.287 61.8333 243.279 61.9803 243.27 62.1231C243.262 62.2575 243.253 62.3667 243.245 62.4507L246.861 56.7933H248.222V63.5469H247.189V59.5653C247.189 59.4309 247.189 59.2545 247.189 59.0361C247.197 58.8177 247.206 58.6035 247.214 58.3935C247.222 58.1751 247.231 58.0113 247.239 57.9021L243.648 63.5469H242.275V56.7933H243.321V60.9135ZM257.868 56.7933V63.5469H256.873V59.2377C256.873 59.0613 256.877 58.8765 256.885 58.6833C256.902 58.4901 256.919 58.3011 256.936 58.1163H256.898L254.693 63.5469H253.761L251.619 58.1163H251.581C251.598 58.3011 251.606 58.4901 251.606 58.6833C251.614 58.8765 251.619 59.0739 251.619 59.2755V63.5469H250.623V56.7933H252.097L254.227 62.2239L256.394 56.7933H257.868Z" fill="#19C1B6"/>
<mask id="mask0_1769_19506" style="mask-type:luminance" maskUnits="userSpaceOnUse" x="0" y="0" width="66" height="66">
<path d="M0.899414 0.549606H65.6994V65.3496H0.899414V0.549606Z" fill="white"/>
</mask>
<g mask="url(#mask0_1769_19506)">
<path d="M1.84863 58.2641V63.1367C1.84863 63.8357 2.41525 64.4023 3.11426 64.4023H30.8793C31.434 63.672 32.3115 63.2 33.2994 63.2C34.2874 63.2 35.1648 63.672 35.7195 64.4023H63.4846C64.1836 64.4023 64.7502 63.8357 64.7502 63.1367V23.4582C64.7502 22.7594 64.1836 22.1926 63.4846 22.1926H61.3092" fill="#FEA439"/>
<path d="M1.84863 58.2641V63.1367C1.84863 63.8357 2.41525 64.4023 3.11426 64.4023H30.8793C31.434 63.672 32.3115 63.2 33.2994 63.2C34.2874 63.2 35.1648 63.672 35.7195 64.4023H63.4846C64.1836 64.4023 64.7502 63.8357 64.7502 63.1367V23.4582C64.7502 22.7594 64.1836 22.1926 63.4846 22.1926H61.3092" stroke="black" stroke-width="1.08" stroke-miterlimit="10" stroke-linecap="round" stroke-linejoin="round"/>
<path d="M5.98064 22.1924H3.11426C2.41525 22.1924 1.84863 22.7591 1.84863 23.458V52.4844" fill="#FEA439"/>
<path d="M5.98064 22.1924H3.11426C2.41525 22.1924 1.84863 22.7591 1.84863 23.458V52.4844" stroke="black" stroke-width="1.08" stroke-miterlimit="10" stroke-linecap="round" stroke-linejoin="round"/>
<path d="M60.619 28.1424V60.4688H5.98145V28.1424" fill="#FEA439"/>
<path d="M60.619 28.1424V60.4688H5.98145V28.1424" stroke="black" stroke-width="1.08" stroke-miterlimit="10" stroke-linecap="round" stroke-linejoin="round"/>
<path d="M33.2992 60.0547C33.2992 60.0547 23.0031 51.5349 5.98047 57.5234V21.0141C5.98047 21.0141 8.44034 19.8577 12.3085 19.0135" fill="#FEA439"/>
<path d="M33.2992 60.0547C33.2992 60.0547 23.0031 51.5349 5.98047 57.5234V21.0141C5.98047 21.0141 8.44034 19.8577 12.3085 19.0135" stroke="black" stroke-width="1.08" stroke-miterlimit="10" stroke-linecap="round" stroke-linejoin="round"/>
<path d="M18.6359 7.28078C16.7358 6.39775 14.6303 5.66989 12.3076 5.18326V43.6016C27.3688 46.757 33.2983 60.0547 33.2983 60.0547" fill="#FEA439"/>
<path d="M18.6359 7.28078C16.7358 6.39775 14.6303 5.66989 12.3076 5.18326V43.6016C27.3688 46.757 33.2983 60.0547 33.2983 60.0547" stroke="black" stroke-width="1.08" stroke-miterlimit="10" stroke-linecap="round" stroke-linejoin="round"/>
<path d="M33.2993 21.6364C33.2993 21.6364 33.6969 4.65372 18.6357 1.49826V39.9167C33.6969 43.072 33.2993 60.0547 33.2993 60.0547V21.6364Z" fill="#FEA439" stroke="black" stroke-width="1.08" stroke-miterlimit="10" stroke-linecap="round" stroke-linejoin="round"/>
<path d="M33.2988 60.0547C33.2988 60.0547 43.5949 51.5349 60.6176 57.5234V21.0141C60.6176 21.0141 59.1992 20.3474 56.8229 19.6567" fill="#FEA439"/>
<path d="M33.2988 60.0547C33.2988 60.0547 43.5949 51.5349 60.6176 57.5234V21.0141C60.6176 21.0141 59.1992 20.3474 56.8229 19.6567" stroke="black" stroke-width="1.08" stroke-miterlimit="10" stroke-linecap="round" stroke-linejoin="round"/>
<path d="M56.8228 29.2787V51.1953C41.5685 51.1953 33.3008 60.0547 33.3008 60.0547V21.6364C33.3008 21.6364 41.5685 12.777 56.8228 12.777V23.4569" fill="#FEA439"/>
<path d="M56.8228 29.2787V51.1953C41.5685 51.1953 33.3008 60.0547 33.3008 60.0547V21.6364C33.3008 21.6364 41.5685 12.777 56.8228 12.777V23.4569" stroke="black" stroke-width="1.08" stroke-miterlimit="10" stroke-linecap="round" stroke-linejoin="round"/>
</g>
</svg>
