<svg width="23" height="22" viewBox="0 0 23 22" fill="none" xmlns="http://www.w3.org/2000/svg">
<path d="M4.49922 18.0973C4.00422 18.0973 3.58032 17.9209 3.22752 17.5681C2.87472 17.2153 2.69862 16.7917 2.69922 16.2973V5.49727C2.69922 5.00227 2.87562 4.57837 3.22842 4.22557C3.58122 3.87277 4.00482 3.69667 4.49922 3.69727H18.8992C19.3942 3.69727 19.8181 3.87367 20.1709 4.22647C20.5237 4.57927 20.6998 5.00287 20.6992 5.49727V16.2973C20.6992 16.7923 20.5228 17.2162 20.17 17.569C19.8172 17.9218 19.3936 18.0979 18.8992 18.0973H4.49922ZM11.6992 11.7973L4.49922 7.29727V16.2973H18.8992V7.29727L11.6992 11.7973ZM11.6992 9.99727L18.8992 5.49727H4.49922L11.6992 9.99727ZM4.49922 7.29727V5.49727V16.2973V7.29727Z" fill="#19C1B6"/>
</svg>
