<svg width="18" height="17" viewBox="0 0 18 17" fill="none" xmlns="http://www.w3.org/2000/svg">
<g clip-path="url(#clip0_2500_470)">
<path d="M4.59957 2.04412C4.53979 1.96723 4.46435 1.90394 4.37824 1.85845C4.29212 1.81296 4.19732 1.78632 4.10012 1.78028C4.00292 1.77425 3.90555 1.78897 3.81447 1.82346C3.72339 1.85795 3.6407 1.91142 3.57188 1.98033L2.52495 3.02827C2.03592 3.51832 1.85569 4.21188 2.06933 4.82039C2.95601 7.33908 4.39838 9.62581 6.28943 11.511C8.17463 13.402 10.4614 14.8444 12.98 15.7311C13.5885 15.9447 14.2821 15.7645 14.7722 15.2755L15.8191 14.2285C15.888 14.1597 15.9415 14.077 15.976 13.986C16.0104 13.8949 16.0252 13.7975 16.0191 13.7003C16.0131 13.6031 15.9864 13.5083 15.941 13.4222C15.8955 13.3361 15.8322 13.2606 15.7553 13.2009L13.4195 11.3844C13.3373 11.3207 13.2418 11.2765 13.14 11.2551C13.0383 11.2337 12.9331 11.2357 12.8322 11.2609L10.6148 11.8147C10.3189 11.8887 10.0088 11.8848 9.71476 11.8034C9.42075 11.7219 9.15284 11.5657 8.93712 11.35L6.45042 8.86229C6.23452 8.64667 6.07815 8.37881 5.99653 8.08479C5.9149 7.79078 5.91082 7.48064 5.98467 7.18458L6.53952 4.96721C6.56473 4.86636 6.56672 4.7611 6.54532 4.65937C6.52392 4.55764 6.4797 4.4621 6.41599 4.37996L4.59957 2.04412ZM2.80744 1.2169C2.98462 1.03967 3.19748 0.902149 3.43189 0.813486C3.66629 0.724822 3.91688 0.68704 4.16701 0.702649C4.41713 0.718258 4.66108 0.786901 4.88264 0.904019C5.10421 1.02114 5.29832 1.18405 5.45209 1.38194L7.26852 3.71677C7.60163 4.14506 7.71908 4.70294 7.58745 5.22944L7.03362 7.44682C7.00498 7.56167 7.00653 7.68197 7.03811 7.79604C7.06969 7.91011 7.13022 8.01408 7.21384 8.09786L9.70155 10.5856C9.78543 10.6694 9.88957 10.73 10.0038 10.7616C10.1181 10.7932 10.2386 10.7946 10.3536 10.7658L12.57 10.212C12.8298 10.147 13.101 10.1419 13.363 10.1972C13.6251 10.2525 13.8712 10.3666 14.0826 10.5309L16.4175 12.3473C17.2568 13.0004 17.3338 14.2407 16.5825 14.991L15.5356 16.0379C14.7863 16.7871 13.6665 17.1162 12.6226 16.7487C9.95081 15.8086 7.52495 14.279 5.52499 12.2734C3.51952 10.2737 1.98996 7.84823 1.04974 5.17679C0.683216 4.13392 1.01228 3.01308 1.76153 2.26383L2.80845 1.2169H2.80744Z" fill="#19C1B6"/>
</g>
<defs>
<clipPath id="clip0_2500_470">
<rect width="16.2" height="16.2" fill="white" transform="translate(0.899414 0.699219)"/>
</clipPath>
</defs>
</svg>
