<svg width="240" height="22" viewBox="0 0 240 22" fill="none" xmlns="http://www.w3.org/2000/svg">
<g clip-path="url(#clip0_1666_2698)">
<path d="M0.100586 2.06047C9.79419 2.06047 14.5402 6.64888 19.5662 11.508C24.5698 16.3474 29.7442 21.3504 40.0006 21.3504C50.257 21.3504 55.4314 16.3474 60.435 11.508C65.461 6.64888 70.207 2.06047 79.9006 2.06047C89.5942 2.06047 94.3402 6.64888 99.3662 11.508C104.37 16.3474 109.544 21.3504 119.801 21.3504C130.057 21.3504 135.231 16.3474 140.235 11.508C145.261 6.64888 150.007 2.06047 159.701 2.06047C169.394 2.06047 174.14 6.64888 179.166 11.508C184.17 16.3474 189.344 21.3504 199.601 21.3504C209.857 21.3504 215.031 16.3474 220.035 11.508C225.061 6.64888 229.807 2.06047 239.501 2.06047V0.650391C229.244 0.650391 224.07 5.65336 219.066 10.4928C214.04 15.3519 209.294 19.9403 199.601 19.9403C189.907 19.9403 185.161 15.3519 180.135 10.4928C175.131 5.65336 169.957 0.650391 159.701 0.650391C149.444 0.650391 144.27 5.65336 139.266 10.4928C134.24 15.3519 129.494 19.9403 119.801 19.9403C110.107 19.9403 105.361 15.3519 100.335 10.4928C95.3286 5.65336 90.1542 0.650391 79.8978 0.650391C69.6414 0.650391 64.467 5.65336 59.4634 10.4928C54.4374 15.3519 49.6914 19.9403 39.9978 19.9403C30.3042 19.9403 25.5582 15.3519 20.5322 10.4928C15.5314 5.65336 10.357 0.650391 0.100586 0.650391V2.06047Z" fill="#19C1B6"/>
</g>
<defs>
<clipPath id="clip0_1666_2698">
<rect width="239.4" height="20.7" fill="white" transform="translate(0.100586 0.650391)"/>
</clipPath>
</defs>
</svg>
