<svg width="126" height="22" viewBox="0 0 126 22" fill="none" xmlns="http://www.w3.org/2000/svg">
<g clip-path="url(#clip0_1666_2696)">
<path d="M-114.3 2.06047C-104.606 2.06047 -99.8602 6.64888 -94.8342 11.508C-89.8306 16.3474 -84.6562 21.3504 -74.3998 21.3504C-64.1434 21.3504 -58.969 16.3474 -53.9654 11.508C-48.9394 6.64888 -44.1934 2.06047 -34.4998 2.06047C-24.8062 2.06047 -20.0602 6.64888 -15.0342 11.508C-10.0306 16.3474 -4.8562 21.3504 5.40019 21.3504C15.6566 21.3504 20.831 16.3474 25.8346 11.508C30.8606 6.64888 35.6066 2.06047 45.3002 2.06047C54.9938 2.06047 59.7398 6.64888 64.7658 11.508C69.7694 16.3474 74.9438 21.3504 85.2002 21.3504C95.4566 21.3504 100.631 16.3474 105.635 11.508C110.661 6.64888 115.407 2.06047 125.1 2.06047V0.650391C114.844 0.650391 109.669 5.65336 104.666 10.4928C99.6398 15.3519 94.8938 19.9403 85.2002 19.9403C75.5066 19.9403 70.7606 15.3519 65.7346 10.4928C60.731 5.65336 55.5566 0.650391 45.3002 0.650391C35.0438 0.650391 29.8694 5.65336 24.8658 10.4928C19.8398 15.3519 15.0938 19.9403 5.40019 19.9403C-4.2934 19.9403 -9.0394 15.3519 -14.0654 10.4928C-19.0718 5.65336 -24.2462 0.650391 -34.5026 0.650391C-44.759 0.650391 -49.9334 5.65336 -54.937 10.4928C-59.963 15.3519 -64.709 19.9403 -74.4026 19.9403C-84.0962 19.9403 -88.8422 15.3519 -93.8682 10.4928C-98.869 5.65336 -104.043 0.650391 -114.3 0.650391V2.06047Z" fill="#19C1B6"/>
</g>
<defs>
<clipPath id="clip0_1666_2696">
<rect width="239.4" height="20.7" fill="white" transform="translate(-114.3 0.650391)"/>
</clipPath>
</defs>
</svg>
