<svg width="129" height="129" viewBox="0 0 129 129" fill="none" xmlns="http://www.w3.org/2000/svg">
<g clip-path="url(#clip0_2500_416)">
<path d="M64.1998 0.476562C28.907 0.476562 0.299805 29.0838 0.299805 64.3766C0.299805 99.6653 28.907 128.277 64.1998 128.277C99.4926 128.277 128.1 99.6653 128.1 64.3766C128.1 29.0838 99.4926 0.476562 64.1998 0.476562Z" fill="#E02F2F"/>
<path d="M72.1702 78.6504C71.9066 78.6504 71.651 78.7063 71.3954 78.8301C71.1438 78.9499 70.8922 79.1416 70.6406 79.3972V90.9751C70.9362 91.2706 71.2277 91.5023 71.5073 91.6301C71.7868 91.7619 72.0784 91.8298 72.3899 91.8298C72.8372 91.8298 73.1647 91.702 73.3723 91.4344C73.58 91.1748 73.6918 90.7554 73.6918 90.1564V80.5634C73.6918 79.9364 73.5601 79.4571 73.3045 79.1376C73.0449 78.8101 72.6615 78.6504 72.1702 78.6504Z" fill="white"/>
<path d="M84.7662 78.7168C84.1831 78.7168 83.7677 78.8805 83.5121 79.228C83.2605 79.5555 83.1367 80.1146 83.1367 80.8934V82.7705H86.3677V80.8934C86.3677 80.1146 86.2359 79.5555 85.9803 79.228C85.7327 78.8805 85.3213 78.7168 84.7662 78.7168Z" fill="white"/>
<path d="M92.4705 64.2483C89.4672 61.253 64.1868 61.2131 64.1868 61.2131C64.1868 61.2091 38.9064 61.249 35.8991 64.2443C32.8918 67.2476 32.8838 82.0644 32.8838 82.1483C32.8838 82.2601 32.8918 97.053 35.8991 100.056C38.9064 103.052 64.1868 103.115 64.1868 103.115C64.1868 103.115 89.4712 103.052 92.4705 100.056C95.4898 97.045 95.5177 82.1483 95.5177 82.1483C95.5177 82.0684 95.4818 67.2516 92.4705 64.2483ZM52.1656 72.9826H47.9083V94.5089H43.7907V72.9826H39.5294V69.3244H52.1616V72.9826H52.1656ZM64.1988 94.505H60.5525V92.4641C59.8735 93.219 59.1746 93.7941 58.4398 94.1855C57.7089 94.5848 57.002 94.7765 56.3191 94.7765C55.4724 94.7765 54.8454 94.505 54.4101 93.9458C53.9907 93.3907 53.7711 92.568 53.7711 91.4577V75.922H57.4214V90.1717C57.4214 90.615 57.4973 90.9306 57.645 91.1302C57.8048 91.3299 58.0564 91.4258 58.3958 91.4258C58.6634 91.4258 59.0069 91.298 59.4182 91.0304C59.8296 90.7708 60.205 90.4393 60.5525 90.036V75.922H64.1988V94.505ZM77.454 90.667C77.454 91.9809 77.1665 92.9873 76.5954 93.6902C76.0282 94.3931 75.1935 94.7406 74.1112 94.7406C73.3924 94.7406 72.7574 94.6128 72.2022 94.3372C71.6431 94.0656 71.1159 93.6543 70.6407 93.0792V94.505H66.9504V69.3204H70.6407V77.4317C71.1359 76.8646 71.6551 76.4292 72.2062 76.1417C72.7653 75.8462 73.3245 75.6984 73.8916 75.6984C75.0498 75.6984 75.9324 76.0938 76.5394 76.8805C77.1545 77.6753 77.454 78.8335 77.454 80.3551V90.667ZM90.1222 85.6668H83.1371V89.1613C83.1371 90.1398 83.2569 90.8187 83.4925 91.1981C83.7402 91.5775 84.1475 91.7612 84.7306 91.7612C85.3337 91.7612 85.757 91.6015 86.0006 91.282C86.2402 90.9625 86.3681 90.2596 86.3681 89.1613V88.3146H90.1262V89.2691C90.1262 91.1742 89.6709 92.6079 88.7523 93.5784C87.8417 94.5409 86.4719 95.0162 84.6547 95.0162C83.0213 95.0162 81.7273 94.509 80.7888 93.4866C79.8503 92.4681 79.375 91.0663 79.375 89.2731V80.9302C79.375 79.3247 79.8982 78.0028 80.9286 76.9924C81.959 75.978 83.2889 75.4707 84.9263 75.4707C86.5997 75.4707 87.8857 75.942 88.7843 76.8805C89.6829 77.8191 90.1262 79.169 90.1262 80.9302V85.6668H90.1222Z" fill="white"/>
<path d="M84.7512 53.4211H80.6377V51.1606C79.8868 51.9913 79.0961 52.6303 78.2734 53.0617C77.4546 53.497 76.6599 53.7166 75.8891 53.7166C74.9306 53.7166 74.2197 53.4091 73.7404 52.8021C73.2612 52.191 73.0176 51.2805 73.0176 50.0584V32.9531H77.1232V48.6446C77.1232 49.1278 77.219 49.4793 77.3907 49.6949C77.5585 49.9146 77.842 50.0224 78.2254 50.0224C78.525 50.0224 78.9084 49.8786 79.3716 49.5911C79.8309 49.3035 80.2582 48.9361 80.6377 48.4888V32.9531H84.7512V53.4211Z" fill="white"/>
<path d="M68.0531 33.9233C66.9628 32.9328 65.565 32.4336 63.8637 32.4336C61.9986 32.4336 60.5049 32.9049 59.4026 33.8434C58.2924 34.7819 57.7372 36.0439 57.7412 37.6335V48.2409C57.7412 49.9821 58.2844 51.364 59.3587 52.3944C60.441 53.4208 61.8828 53.936 63.6799 53.936C65.553 53.936 67.0147 53.4367 68.089 52.4423C69.1514 51.4439 69.6825 50.074 69.6825 48.3247V37.7493C69.6786 36.1917 69.1354 34.9137 68.0531 33.9233ZM65.4891 48.6323C65.4891 49.1754 65.3254 49.6067 64.9979 49.9262C64.6664 50.2377 64.2271 50.3935 63.672 50.3935C63.1248 50.3935 62.7055 50.2417 62.4179 49.9342C62.1264 49.6227 61.9746 49.1914 61.9746 48.6323V37.4817C61.9746 37.0344 62.1344 36.671 62.4459 36.3954C62.7614 36.1198 63.1687 35.984 63.672 35.984C64.2111 35.984 64.6504 36.1198 64.9859 36.3954C65.3214 36.671 65.4891 37.0344 65.4891 37.4817V48.6323Z" fill="white"/>
<path d="M46.5387 25.6797H41.874L47.3854 42.4295V53.4203H52.0182V41.9103L57.4057 25.6797H52.6971L49.8376 36.7663H49.546L46.5387 25.6797Z" fill="white"/>
</g>
<defs>
<clipPath id="clip0_2500_416">
<rect width="127.8" height="127.8" fill="white" transform="translate(0.299805 0.5)"/>
</clipPath>
</defs>
</svg>
